# xmcd
#
# Track frame offsets: 
#        150
#        19347
#        34533
#        48333
#        69766
#
# Disc length: 1203 seconds
#
# Revision: 0
# Processed by: cddbd v1.5.2PL0 Copyright (c) Steve Scherf et al.
# Submitted via: ExactAudioCopy v1.0b1
#
DISCID=3404b105
DTITLE=阿部芙蓉美 - Birthday
DYEAR=2009
DGENRE=JPop
TTITLE0=Birthday
TTITLE1=いっそ セレナーデ
TTITLE2=止まり木に愛を
TTITLE3=声と涙
TTITLE4=SEXY
EXTD=
EXTT0=
EXTT1=
EXTT2=
EXTT3=
EXTT4=
PLAYORDER=
